<svg width="92" height="92" viewBox="0 0 92 92" fill="none" xmlns="http://www.w3.org/2000/svg">
<path d="M47.3698 27.5341C48.7251 25.9077 51.1423 25.688 52.7687 27.0433C54.3951 28.3986 54.6148 30.8158 53.2595 32.4422L47.3698 27.5341ZM37.6087 45.2353L34.6639 47.6893C33.4792 46.2677 33.4792 44.2028 34.6639 42.7812L37.6087 45.2353ZM53.2595 58.0283C54.6148 59.6547 54.3951 62.0719 52.7687 63.4272C51.1423 64.7825 48.7251 64.5628 47.3698 62.9364L53.2595 58.0283ZM53.2595 32.4422L40.5536 47.6893L34.6639 42.7812L47.3698 27.5341L53.2595 32.4422ZM40.5536 42.7812L53.2595 58.0283L47.3698 62.9364L34.6639 47.6893L40.5536 42.7812ZM46 15.3333C29.0633 15.3333 15.3333 29.0633 15.3333 46H7.66666C7.66666 24.8291 24.8291 7.66666 46 7.66666V15.3333ZM15.3333 46C15.3333 62.9367 29.0633 76.6667 46 76.6667V84.3333C24.8291 84.3333 7.66666 67.1709 7.66666 46H15.3333ZM46 76.6667C62.9367 76.6667 76.6667 62.9367 76.6667 46H84.3333C84.3333 67.1709 67.1709 84.3333 46 84.3333V76.6667ZM76.6667 46C76.6667 29.0633 62.9367 15.3333 46 15.3333V7.66666C67.1709 7.66666 84.3333 24.8291 84.3333 46H76.6667Z" fill="#3D1A1A"/>
</svg>
