<svg width="92" height="92" viewBox="0 0 92 92" fill="none" xmlns="http://www.w3.org/2000/svg">
<path d="M44.6302 27.5341C43.2749 25.9077 40.8577 25.688 39.2313 27.0433C37.6049 28.3986 37.3852 30.8158 38.7405 32.4422L44.6302 27.5341ZM54.3913 45.2353L57.3361 47.6893C58.5208 46.2677 58.5208 44.2028 57.3361 42.7812L54.3913 45.2353ZM38.7405 58.0283C37.3852 59.6547 37.6049 62.0719 39.2313 63.4272C40.8577 64.7825 43.2749 64.5628 44.6302 62.9364L38.7405 58.0283ZM38.7405 32.4422L51.4464 47.6893L57.3361 42.7812L44.6302 27.5341L38.7405 32.4422ZM51.4464 42.7812L38.7405 58.0283L44.6302 62.9364L57.3361 47.6893L51.4464 42.7812ZM46 15.3333C62.9367 15.3333 76.6667 29.0633 76.6667 46H84.3333C84.3333 24.8291 67.1709 7.66666 46 7.66666V15.3333ZM76.6667 46C76.6667 62.9367 62.9367 76.6667 46 76.6667V84.3333C67.1709 84.3333 84.3333 67.1709 84.3333 46H76.6667ZM46 76.6667C29.0633 76.6667 15.3333 62.9367 15.3333 46H7.66667C7.66667 67.1709 24.8291 84.3333 46 84.3333V76.6667ZM15.3333 46C15.3333 29.0633 29.0633 15.3333 46 15.3333V7.66666C24.8291 7.66666 7.66667 24.8291 7.66667 46H15.3333Z" fill="#3D1A1A"/>
</svg>
