<svg width="513" height="448" viewBox="0 0 513 448" fill="none" xmlns="http://www.w3.org/2000/svg">
<rect width="513" height="434" rx="30" fill="#E69D73"/>
<path d="M54.376 105.512C53.352 105.512 52.52 105.277 51.88 104.808C51.2827 104.339 50.92 103.72 50.792 102.952C50.664 102.141 50.8133 101.245 51.24 100.264L68.136 62.824C68.6907 61.5867 69.352 60.712 70.12 60.2C70.9307 59.6453 71.848 59.368 72.872 59.368C73.8533 59.368 74.728 59.6453 75.496 60.2C76.3067 60.712 76.9893 61.5867 77.544 62.824L94.504 100.264C94.9733 101.245 95.144 102.141 95.016 102.952C94.888 103.763 94.5253 104.403 93.928 104.872C93.3307 105.299 92.5413 105.512 91.56 105.512C90.3653 105.512 89.4267 105.235 88.744 104.68C88.104 104.083 87.528 103.187 87.016 101.992L82.856 92.328L86.312 94.568H59.304L62.76 92.328L58.664 101.992C58.1093 103.229 57.5333 104.125 56.936 104.68C56.3387 105.235 55.4853 105.512 54.376 105.512ZM72.744 68.776L63.784 90.088L62.12 88.04H83.496L81.896 90.088L72.872 68.776H72.744ZM105.137 105C103.857 105 102.876 104.659 102.193 103.976C101.51 103.293 101.169 102.312 101.169 101.032V77.672C101.169 76.392 101.51 75.4107 102.193 74.728C102.876 74.0453 103.857 73.704 105.137 73.704H118.065C120.753 73.704 122.929 74.024 124.593 74.664C126.3 75.304 127.537 76.2427 128.305 77.48C129.073 78.6747 129.457 80.1467 129.457 81.896C129.457 83.8587 128.774 85.5227 127.409 86.888C126.086 88.2107 124.316 89.0213 122.097 89.32V88.424C124.87 88.5947 126.961 89.384 128.369 90.792C129.82 92.2 130.545 94.0133 130.545 96.232C130.545 98.92 129.521 101.053 127.473 102.632C125.425 104.211 122.46 105 118.577 105H105.137ZM108.593 100.072H117.873C119.622 100.072 120.945 99.7093 121.841 98.984C122.78 98.2587 123.249 97.192 123.249 95.784C123.249 94.376 122.78 93.3093 121.841 92.584C120.945 91.8587 119.622 91.496 117.873 91.496H108.593V100.072ZM108.593 86.568H117.297C118.833 86.568 120.028 86.2267 120.881 85.544C121.734 84.8187 122.161 83.816 122.161 82.536C122.161 81.256 121.734 80.296 120.881 79.656C120.028 78.9733 118.833 78.632 117.297 78.632H108.593V86.568ZM148.793 105.512C147.513 105.512 146.51 105.171 145.785 104.488C145.102 103.763 144.761 102.739 144.761 101.416V79.976H136.953C134.649 79.976 133.497 78.9307 133.497 76.84C133.497 75.8587 133.796 75.0907 134.393 74.536C135.033 73.9813 135.886 73.704 136.953 73.704H160.569C162.873 73.704 164.025 74.7493 164.025 76.84C164.025 77.864 163.726 78.6533 163.129 79.208C162.532 79.72 161.678 79.976 160.569 79.976H152.761V101.416C152.761 102.739 152.42 103.763 151.737 104.488C151.097 105.171 150.116 105.512 148.793 105.512ZM182.443 105.64C179.2 105.64 176.384 104.979 173.995 103.656C171.605 102.333 169.749 100.456 168.427 98.024C167.104 95.5493 166.443 92.648 166.443 89.32C166.443 86.8027 166.805 84.5627 167.531 82.6C168.299 80.5947 169.387 78.888 170.795 77.48C172.203 76.0293 173.888 74.9413 175.851 74.216C177.813 73.448 180.011 73.064 182.443 73.064C185.685 73.064 188.501 73.7253 190.891 75.048C193.28 76.3707 195.136 78.248 196.458 80.68C197.781 83.112 198.443 85.992 198.443 89.32C198.443 91.8373 198.059 94.0987 197.291 96.104C196.565 98.1093 195.499 99.8373 194.091 101.288C192.683 102.696 190.997 103.784 189.035 104.552C187.072 105.277 184.875 105.64 182.443 105.64ZM182.443 99.56C184.021 99.56 185.408 99.176 186.603 98.408C187.797 97.64 188.715 96.5093 189.355 95.016C190.037 93.48 190.379 91.5813 190.379 89.32C190.379 85.9067 189.653 83.368 188.203 81.704C186.752 79.9973 184.832 79.144 182.443 79.144C180.864 79.144 179.477 79.528 178.283 80.296C177.088 81.0213 176.149 82.152 175.467 83.688C174.827 85.1813 174.507 87.0587 174.507 89.32C174.507 92.6907 175.232 95.2507 176.683 97C178.133 98.7067 180.053 99.56 182.443 99.56ZM209.889 117.032C208.609 117.032 207.627 116.691 206.945 116.008C206.262 115.325 205.921 114.323 205.921 113V77.224C205.921 75.9013 206.262 74.8987 206.945 74.216C207.627 73.5333 208.587 73.192 209.825 73.192C211.105 73.192 212.086 73.5333 212.769 74.216C213.451 74.8987 213.793 75.9013 213.793 77.224V82.216L213.089 80.296C213.729 78.12 215.03 76.3707 216.993 75.048C218.998 73.7253 221.323 73.064 223.969 73.064C226.699 73.064 229.089 73.7253 231.137 75.048C233.227 76.3707 234.849 78.248 236.001 80.68C237.153 83.0693 237.729 85.9493 237.729 89.32C237.729 92.648 237.153 95.5493 236.001 98.024C234.849 100.456 233.249 102.333 231.201 103.656C229.153 104.979 226.742 105.64 223.969 105.64C221.366 105.64 219.083 105 217.121 103.72C215.158 102.397 213.835 100.691 213.153 98.6H213.921V113C213.921 114.323 213.558 115.325 212.833 116.008C212.15 116.691 211.169 117.032 209.889 117.032ZM221.729 99.56C223.307 99.56 224.694 99.176 225.889 98.408C227.083 97.64 228.001 96.5093 228.641 95.016C229.323 93.48 229.665 91.5813 229.665 89.32C229.665 85.9067 228.939 83.368 227.489 81.704C226.038 79.9973 224.118 79.144 221.729 79.144C220.15 79.144 218.763 79.528 217.569 80.296C216.374 81.0213 215.435 82.152 214.753 83.688C214.113 85.1813 213.793 87.0587 213.793 89.32C213.793 92.6907 214.518 95.2507 215.969 97C217.419 98.7067 219.339 99.56 221.729 99.56ZM249.137 105C247.857 105 246.876 104.659 246.193 103.976C245.51 103.293 245.169 102.312 245.169 101.032V77.224C245.169 75.8587 245.51 74.856 246.193 74.216C246.918 73.5333 247.921 73.192 249.201 73.192C250.481 73.192 251.462 73.5333 252.145 74.216C252.828 74.856 253.169 75.8587 253.169 77.224V84.072H261.425C265.564 84.072 268.678 84.9467 270.769 86.696C272.902 88.4453 273.969 91.0053 273.969 94.376C273.969 96.5093 273.457 98.3867 272.433 100.008C271.409 101.587 269.958 102.824 268.081 103.72C266.246 104.573 264.028 105 261.425 105H249.137ZM253.169 99.752H260.209C262.214 99.752 263.772 99.3253 264.881 98.472C265.99 97.576 266.545 96.232 266.545 94.44C266.545 92.6907 265.99 91.4107 264.881 90.6C263.772 89.7467 262.214 89.32 260.209 89.32H253.169V99.752ZM281.713 105.512C280.433 105.512 279.452 105.171 278.769 104.488C278.086 103.763 277.745 102.739 277.745 101.416V77.224C277.745 75.8587 278.086 74.856 278.769 74.216C279.452 73.5333 280.433 73.192 281.713 73.192C282.993 73.192 283.974 73.5333 284.657 74.216C285.382 74.856 285.745 75.8587 285.745 77.224V101.416C285.745 104.147 284.401 105.512 281.713 105.512Z" fill="#250E0E"/>
<path d="M243.407 354.285C242.681 360.688 247.283 366.466 253.685 367.192C260.087 367.918 265.866 363.316 266.591 356.913L243.407 354.285ZM268.066 240.323L260.568 231.385C258.276 233.307 256.81 236.037 256.473 239.009L268.066 240.323ZM301.697 227.337C306.634 223.196 307.278 215.838 303.137 210.901C298.996 205.965 291.637 205.32 286.701 209.461L301.697 227.337ZM467.407 356.913C468.132 363.316 473.911 367.918 480.313 367.192C486.715 366.466 491.317 360.688 490.591 354.285L467.407 356.913ZM465.932 240.323L477.525 239.009C477.188 236.037 475.722 233.307 473.43 231.385L465.932 240.323ZM447.297 209.461C442.361 205.32 435.002 205.965 430.861 210.901C426.72 215.838 427.364 223.196 432.301 227.337L447.297 209.461ZM321.732 358.399C321.732 373.606 309.405 385.933 294.199 385.933V409.266C322.292 409.266 345.066 386.492 345.066 358.399H321.732ZM294.199 385.933C278.993 385.933 266.666 373.606 266.666 358.399H243.332C243.332 386.492 266.106 409.266 294.199 409.266V385.933ZM266.666 358.399C266.666 343.193 278.993 330.866 294.199 330.866V307.533C266.106 307.533 243.332 330.307 243.332 358.399H266.666ZM294.199 330.866C309.405 330.866 321.732 343.193 321.732 358.399H345.066C345.066 330.307 322.292 307.533 294.199 307.533V330.866ZM343.142 355.841C347.921 347.581 356.823 342.066 366.999 342.066V318.733C348.157 318.733 331.722 328.984 322.945 344.158L343.142 355.841ZM366.999 342.066C377.176 342.066 386.078 347.581 390.856 355.841L411.054 344.158C402.276 328.984 385.842 318.733 366.999 318.733V342.066ZM467.332 358.399C467.332 373.606 455.005 385.933 439.799 385.933V409.266C467.892 409.266 490.666 386.492 490.666 358.399H467.332ZM439.799 385.933C424.593 385.933 412.266 373.606 412.266 358.399H388.932C388.932 386.492 411.706 409.266 439.799 409.266V385.933ZM412.266 358.399C412.266 343.193 424.593 330.866 439.799 330.866V307.533C411.706 307.533 388.932 330.307 388.932 358.399H412.266ZM439.799 330.866C455.005 330.866 467.332 343.193 467.332 358.399H490.666C490.666 330.307 467.892 307.533 439.799 307.533V330.866ZM266.591 356.913L279.658 241.637L256.473 239.009L243.407 354.285L266.591 356.913ZM275.564 249.261L301.697 227.337L286.701 209.461L260.568 231.385L275.564 249.261ZM490.591 354.285L477.525 239.009L454.34 241.637L467.407 356.913L490.591 354.285ZM473.43 231.385L447.297 209.461L432.301 227.337L458.434 249.261L473.43 231.385Z" fill="#3D1A1A"/>
</svg>
