<svg width="529" height="488" viewBox="0 0 529 488" fill="none" xmlns="http://www.w3.org/2000/svg">
<rect width="513" height="434" rx="30" fill="#E59D73"/>
<path d="M59.152 105.64C54.8 105.64 50.9813 104.68 47.696 102.76C44.4533 100.84 41.936 98.152 40.144 94.696C38.352 91.1973 37.456 87.1013 37.456 82.408C37.456 78.8667 37.968 75.688 38.992 72.872C40.016 70.0133 41.4667 67.5813 43.344 65.576C45.264 63.528 47.5467 61.9707 50.192 60.904C52.88 59.7947 55.8667 59.24 59.152 59.24C63.5467 59.24 67.3653 60.2 70.608 62.12C73.8507 63.9973 76.368 66.664 78.16 70.12C79.952 73.576 80.848 77.6507 80.848 82.344C80.848 85.8853 80.336 89.0853 79.312 91.944C78.288 94.8027 76.816 97.256 74.896 99.304C73.0187 101.352 70.736 102.931 68.048 104.04C65.4027 105.107 62.4373 105.64 59.152 105.64ZM59.152 98.6C61.9253 98.6 64.272 97.96 66.192 96.68C68.1547 95.4 69.648 93.544 70.672 91.112C71.7387 88.68 72.272 85.7787 72.272 82.408C72.272 77.288 71.12 73.32 68.816 70.504C66.5547 67.688 63.3333 66.28 59.152 66.28C56.4213 66.28 54.0747 66.92 52.112 68.2C50.1493 69.4373 48.6347 71.272 47.568 73.704C46.544 76.0933 46.032 78.9947 46.032 82.408C46.032 87.4853 47.184 91.4533 49.488 94.312C51.792 97.1707 55.0133 98.6 59.152 98.6ZM113.257 105.512C111.977 105.512 110.996 105.171 110.313 104.488C109.63 103.763 109.289 102.739 109.289 101.416V79.976H99.433V83.624C99.433 86.568 99.241 89.2133 98.857 91.56C98.5157 93.9067 97.961 95.9547 97.193 97.704C96.4677 99.4533 95.5077 100.925 94.313 102.12C93.1183 103.315 91.689 104.275 90.025 105C89.129 105.384 88.297 105.491 87.529 105.32C86.8037 105.149 86.185 104.829 85.673 104.36C85.2037 103.848 84.905 103.251 84.777 102.568C84.649 101.843 84.7343 101.139 85.033 100.456C85.3317 99.7733 85.9077 99.1973 86.761 98.728C87.8277 98.1307 88.7023 97.384 89.385 96.488C90.0677 95.592 90.601 94.5253 90.985 93.288C91.369 92.008 91.6463 90.5573 91.817 88.936C91.9877 87.3147 92.073 85.4587 92.073 83.368V78.184C92.073 76.7333 92.457 75.624 93.225 74.856C93.993 74.088 95.1023 73.704 96.553 73.704H112.809C114.26 73.704 115.369 74.088 116.137 74.856C116.905 75.624 117.289 76.7333 117.289 78.184V101.416C117.289 102.739 116.926 103.763 116.201 104.488C115.518 105.171 114.537 105.512 113.257 105.512ZM140.693 105.64C137.45 105.64 134.634 104.979 132.245 103.656C129.855 102.333 127.999 100.456 126.677 98.024C125.354 95.5493 124.693 92.648 124.693 89.32C124.693 86.8027 125.055 84.5627 125.781 82.6C126.549 80.5947 127.637 78.888 129.045 77.48C130.453 76.0293 132.138 74.9413 134.101 74.216C136.063 73.448 138.261 73.064 140.693 73.064C143.935 73.064 146.751 73.7253 149.141 75.048C151.53 76.3707 153.386 78.248 154.708 80.68C156.031 83.112 156.693 85.992 156.693 89.32C156.693 91.8373 156.309 94.0987 155.541 96.104C154.815 98.1093 153.749 99.8373 152.341 101.288C150.933 102.696 149.247 103.784 147.285 104.552C145.322 105.277 143.125 105.64 140.693 105.64ZM140.693 99.56C142.271 99.56 143.658 99.176 144.853 98.408C146.047 97.64 146.965 96.5093 147.605 95.016C148.287 93.48 148.629 91.5813 148.629 89.32C148.629 85.9067 147.903 83.368 146.453 81.704C145.002 79.9973 143.082 79.144 140.693 79.144C139.114 79.144 137.727 79.528 136.533 80.296C135.338 81.0213 134.399 82.152 133.717 83.688C133.077 85.1813 132.757 87.0587 132.757 89.32C132.757 92.6907 133.482 95.2507 134.933 97C136.383 98.7067 138.303 99.56 140.693 99.56ZM168.139 105.512C166.859 105.512 165.856 105.171 165.131 104.488C164.448 103.763 164.107 102.739 164.107 101.416V77.224C164.107 75.8587 164.448 74.856 165.131 74.216C165.856 73.5333 166.859 73.192 168.139 73.192C169.419 73.192 170.4 73.5333 171.083 74.216C171.765 74.856 172.107 75.8587 172.107 77.224V85.8H185.931V77.224C185.931 75.8587 186.272 74.856 186.955 74.216C187.637 73.5333 188.619 73.192 189.899 73.192C191.179 73.192 192.16 73.5333 192.843 74.216C193.568 74.856 193.931 75.8587 193.931 77.224V101.416C193.931 102.739 193.568 103.763 192.843 104.488C192.16 105.171 191.179 105.512 189.899 105.512C188.619 105.512 187.637 105.171 186.955 104.488C186.272 103.763 185.931 102.739 185.931 101.416V92.072H172.107V101.416C172.107 102.739 171.765 103.763 171.083 104.488C170.443 105.171 169.461 105.512 168.139 105.512ZM205.284 105.32C204.345 105.32 203.556 105.064 202.916 104.552C202.319 103.997 201.999 103.293 201.956 102.44C201.956 101.587 202.319 100.691 203.044 99.752L213.412 86.952V90.728L203.684 78.76C202.916 77.8213 202.553 76.9253 202.596 76.072C202.639 75.2187 202.959 74.536 203.556 74.024C204.196 73.4693 204.985 73.192 205.924 73.192C206.905 73.192 207.716 73.3627 208.356 73.704C209.039 74.0453 209.657 74.5787 210.212 75.304L217.892 85.16H215.076L222.82 75.304C223.417 74.5787 224.036 74.0453 224.676 73.704C225.316 73.3627 226.105 73.192 227.044 73.192C228.025 73.192 228.815 73.4693 229.412 74.024C230.009 74.5787 230.308 75.2827 230.308 76.136C230.351 76.9893 229.988 77.8853 229.22 78.824L219.556 90.664V87.08L229.924 99.752C230.692 100.648 231.055 101.523 231.012 102.376C230.969 103.229 230.628 103.933 229.988 104.488C229.391 105.043 228.601 105.32 227.62 105.32C226.681 105.32 225.892 105.149 225.252 104.808C224.612 104.467 223.993 103.933 223.396 103.208L215.076 92.712H217.764L209.508 103.208C208.953 103.891 208.356 104.424 207.716 104.808C207.076 105.149 206.265 105.32 205.284 105.32ZM252.568 105.64C249.325 105.64 246.509 104.979 244.12 103.656C241.73 102.333 239.874 100.456 238.552 98.024C237.229 95.5493 236.568 92.648 236.568 89.32C236.568 86.8027 236.93 84.5627 237.656 82.6C238.424 80.5947 239.512 78.888 240.92 77.48C242.328 76.0293 244.013 74.9413 245.976 74.216C247.938 73.448 250.136 73.064 252.568 73.064C255.81 73.064 258.626 73.7253 261.016 75.048C263.405 76.3707 265.261 78.248 266.583 80.68C267.906 83.112 268.568 85.992 268.568 89.32C268.568 91.8373 268.184 94.0987 267.416 96.104C266.69 98.1093 265.624 99.8373 264.216 101.288C262.808 102.696 261.122 103.784 259.16 104.552C257.197 105.277 255 105.64 252.568 105.64ZM252.568 99.56C254.146 99.56 255.533 99.176 256.728 98.408C257.922 97.64 258.84 96.5093 259.48 95.016C260.162 93.48 260.504 91.5813 260.504 89.32C260.504 85.9067 259.778 83.368 258.328 81.704C256.877 79.9973 254.957 79.144 252.568 79.144C250.989 79.144 249.602 79.528 248.408 80.296C247.213 81.0213 246.274 82.152 245.592 83.688C244.952 85.1813 244.632 87.0587 244.632 89.32C244.632 92.6907 245.357 95.2507 246.808 97C248.258 98.7067 250.178 99.56 252.568 99.56Z" fill="#250E0E"/>
<path d="M456.799 332.855C475.861 347.098 492.899 382.959 492.899 405.054C492.899 411.938 487.876 417.518 481.681 417.518H474.849M402.649 274.475C414.98 267.341 423.277 254.008 423.277 238.737C423.277 223.466 414.98 210.133 402.649 203M215.316 417.518H412.919C419.114 417.518 424.137 411.938 424.137 405.054C424.137 361.785 387.988 326.709 314.118 326.709C240.248 326.709 204.099 361.785 204.099 405.054C204.099 411.938 209.121 417.518 215.316 417.518ZM355.375 238.737C355.375 261.523 336.903 279.995 314.118 279.995C291.332 279.995 272.861 261.523 272.861 238.737C272.861 215.952 291.332 197.48 314.118 197.48C336.903 197.48 355.375 215.952 355.375 238.737Z" stroke="#3D1A1A" stroke-width="30.0833" stroke-linecap="round"/>
</svg>
